<svg width="16" height="16" viewBox="0 0 16 16" fill="none" xmlns="http://www.w3.org/2000/svg">
<g clip-path="url(#clip0_528_386)">
<path d="M11.3342 0.603027L9.82166 2.11553L13.8842 6.17803L15.3967 4.66553C16.1779 3.88428 16.1779 2.61865 15.3967 1.8374L14.1654 0.603027C13.3842 -0.178223 12.1185 -0.178223 11.3373 0.603027H11.3342ZM9.11541 2.82178L1.83103 10.1093C1.50603 10.4343 1.26853 10.8374 1.13728 11.278L0.0310334 15.0374C-0.0470916 15.303 0.0247834 15.5874 0.218533 15.7812C0.412283 15.9749 0.696658 16.0468 0.959158 15.9718L4.71853 14.8655C5.15916 14.7343 5.56228 14.4968 5.88728 14.1718L13.1779 6.88428L9.11541 2.82178Z" fill="#343A40"/>
</g>
<defs>
<clipPath id="clip0_528_386">
<rect width="16" height="16" fill="white"/>
</clipPath>
</defs>
</svg>
