<svg width="13" height="13" viewBox="0 0 13 13" fill="none" xmlns="http://www.w3.org/2000/svg">
<path d="M11.8048 10.859L9.53888 8.59971C10.27 7.66831 10.6667 6.51814 10.6652 5.33408C10.6652 4.27958 10.3525 3.24876 9.76665 2.37198C9.1808 1.4952 8.34812 0.811829 7.37389 0.40829C6.39967 0.0047515 5.32766 -0.100833 4.29342 0.10489C3.25919 0.310612 2.30919 0.818401 1.56355 1.56404C0.81791 2.30969 0.310123 3.25969 0.104401 4.29393C-0.101321 5.32817 0.00426321 6.40018 0.4078 7.37441C0.811338 8.34864 1.4947 9.18133 2.37148 9.76717C3.24826 10.353 4.27908 10.6657 5.33357 10.6657C6.51763 10.6672 7.66779 10.2705 8.59918 9.53941L10.8585 11.8054C10.9204 11.8678 10.9941 11.9174 11.0753 11.9512C11.1565 11.9851 11.2437 12.0025 11.3316 12.0025C11.4196 12.0025 11.5067 11.9851 11.5879 11.9512C11.6692 11.9174 11.7429 11.8678 11.8048 11.8054C11.8673 11.7434 11.9169 11.6697 11.9507 11.5885C11.9845 11.5073 12.002 11.4202 12.002 11.3322C12.002 11.2442 11.9845 11.1571 11.9507 11.0759C11.9169 10.9947 11.8673 10.9209 11.8048 10.859ZM1.33486 5.33408C1.33486 4.54321 1.56938 3.77009 2.00876 3.11251C2.44815 2.45492 3.07266 1.94239 3.80333 1.63974C4.534 1.33708 5.33801 1.2579 6.11368 1.41219C6.88935 1.56648 7.60186 1.94732 8.16109 2.50655C8.72031 3.06579 9.10116 3.77829 9.25545 4.55397C9.40974 5.32964 9.33055 6.13366 9.0279 6.86433C8.72524 7.595 8.21272 8.21951 7.55514 8.6589C6.89755 9.09829 6.12444 9.33281 5.33357 9.33281C4.27305 9.33281 3.25596 8.91151 2.50605 8.16161C1.75615 7.4117 1.33486 6.39461 1.33486 5.33408Z" fill="#8D8D8D"/>
</svg>
