<svg width="24" height="29" viewBox="0 0 24 29" fill="none" xmlns="http://www.w3.org/2000/svg">
<path d="M13.5158 2.4528V3.40642C17.2223 4.0203 20.0598 7.37025 20.0598 11.413V13.1944C20.0598 15.6158 20.8522 17.9678 22.2991 19.8612L23.0608 20.8532C23.3573 21.2372 23.4136 21.7653 23.2091 22.2079C23.0046 22.6506 22.5751 22.9333 22.1048 22.9333H1.65475C1.18286 22.9333 0.753155 22.6506 0.548859 22.2079C0.344512 21.7653 0.401977 21.2372 0.696662 20.8532L1.45894 19.8612C2.90936 17.9678 3.69975 15.6158 3.69975 13.1944V11.413C3.69975 7.37025 6.53719 4.0203 10.2438 3.40642V2.4528C10.2438 1.51038 10.9748 0.746094 11.8798 0.746094C12.7847 0.746094 13.5158 1.51038 13.5158 2.4528ZM11.4708 5.86621C8.53618 5.86621 6.15375 8.35161 6.15375 11.413V13.1944C6.15375 15.7491 5.44414 18.2398 4.1246 20.3732H19.6354C18.3164 18.2398 17.6058 15.7491 17.6058 13.1944V11.413C17.6058 8.35161 15.2233 5.86621 12.2888 5.86621H11.4708ZM15.1518 24.64C15.1518 25.4987 14.8092 26.416 14.1957 27.056C13.5822 27.6961 12.7029 28.0534 11.8798 28.0534C11.0106 28.0534 10.1773 27.6961 9.5638 27.056C8.95029 26.416 8.60776 25.4987 8.60776 24.64H15.1518Z" fill="#FFA620"/>
</svg>
